<svg width="512" height="512" version="1.1" xmlns="http://www.w3.org/2000/svg" desc="Created with imagetracer.js version 1.2.6" ><path fill="rgb(0,0,0)" stroke="rgb(0,0,0)" stroke-width="1" opacity="0" d="M 0 0 L 511.5 0 L 512 0.5 L 512 139.5 L 511 139.5 Q 508.3 123.3 496.5 116 Q 488.1 109.4 472.5 110 L 463.5 112 L 453.5 118 L 255.5 315 L 57.5 117 Q 48.7 109.3 31.5 110 Q 14.1 113.1 6 125.5 L 0.5 140 L 0 0 Z " /><path fill="rgb(0,0,0)" stroke="rgb(0,0,0)" stroke-width="1" opacity="0" d="M 0.5 152 Q 1.9 161.6 7 167.5 L 234.5 395 Q 243.1 402.9 260.5 402 Q 270.9 400.4 277.5 395 L 505 167.5 Q 510.1 161.6 511.5 152 L 512 512 L 0 512 L 0.5 152 Z " /><path fill="rgb(0,0,0)" stroke="rgb(0,0,0)" stroke-width="1" opacity="0.9254901960784314" d="M 31.5 110 L 41 110.5 L 31.5 111 L 31.5 110 Z " /><path fill="rgb(0,0,0)" stroke="rgb(0,0,0)" stroke-width="1" opacity="0.9254901960784314" d="M 472.5 110 L 481 110.5 L 472.5 111 L 472.5 110 Z " /><path fill="rgb(0,0,0)" stroke="rgb(0,0,0)" stroke-width="1" opacity="0.9254901960784314" d="M 54.5 115 L 55.5 117 L 54.5 115 Z " /><path fill="rgb(0,0,0)" stroke="rgb(0,0,0)" stroke-width="1" opacity="0.9254901960784314" d="M 457.5 115 L 456.5 117 L 457.5 115 Z " /><path fill="rgb(0,0,0)" stroke="rgb(0,0,0)" stroke-width="1" opacity="0.9254901960784314" d="M 15.5 116 L 12.5 120 L 15.5 116 Z " /><path fill="rgb(0,0,0)" stroke="rgb(0,0,0)" stroke-width="1" opacity="0.9254901960784314" d="M 496.5 116 L 499.5 120 L 496.5 116 Z " /><path fill="rgb(0,0,0)" stroke="rgb(0,0,0)" stroke-width="1" opacity="0.9254901960784314" d="M 57.5 117 L 256.5 315 L 454 118.5 L 255.5 316 L 57.5 117 Z " /><path fill="rgb(0,0,0)" stroke="rgb(0,0,0)" stroke-width="1" opacity="0.9254901960784314" d="M 9.5 122 L 6.5 126 L 9.5 122 Z " /><path fill="rgb(0,0,0)" stroke="rgb(0,0,0)" stroke-width="1" opacity="0.9254901960784314" d="M 502.5 122 L 505.5 126 L 502.5 122 Z " /><path fill="rgb(0,0,0)" stroke="rgb(0,0,0)" stroke-width="1" opacity="0.9254901960784314" d="M 0.5 140 L 1 151.5 L 0 151.5 L 0.5 140 Z " /><path fill="rgb(0,0,0)" stroke="rgb(0,0,0)" stroke-width="1" opacity="0.9254901960784314" d="M 511.5 140 L 512 151.5 L 511 151.5 L 511.5 140 Z " /><path fill="rgb(0,0,0)" stroke="rgb(0,0,0)" stroke-width="1" opacity="0.9254901960784314" d="M 7.5 167 L 10.5 171 L 7.5 167 Z " /><path fill="rgb(0,0,0)" stroke="rgb(0,0,0)" stroke-width="1" opacity="0.9254901960784314" d="M 504.5 167 L 501.5 171 L 504.5 167 Z " /><path fill="rgb(0,0,0)" stroke="rgb(0,0,0)" stroke-width="1" opacity="0.9254901960784314" d="M 231.5 391 L 234.5 395 L 231.5 391 Z " /><path fill="rgb(0,0,0)" stroke="rgb(0,0,0)" stroke-width="1" opacity="0.9254901960784314" d="M 280.5 391 L 277.5 395 L 280.5 391 Z " /><path fill="rgb(0,0,0)" stroke="rgb(0,0,0)" stroke-width="1" opacity="0.9254901960784314" d="M 251.5 401 L 261 401.5 L 251.5 402 L 251.5 401 Z " /><path fill="rgb(0,0,0)" stroke="rgb(0,0,0)" stroke-width="1" opacity="1" d="M 28.5 111 L 43.5 111 L 56.5 117 L 256.5 316 L 455.5 117 L 468.5 111 L 483.5 111 Q 495.1 113.9 502 121.5 Q 508.5 128 511 138.5 L 511 153.5 Q 508.2 164.7 501 171.5 L 281.5 391 Q 274.7 398.2 263.5 401 L 248.5 401 Q 237.3 398.2 230.5 391 L 11 171.5 Q 3.8 164.7 1 153.5 L 1 138.5 Q 3.9 126.9 11.5 120 Q 18 113.5 28.5 111 Z " /></svg>